<svg width="1188" height="1063" viewBox="0 0 1188 1063" fill="none" xmlns="http://www.w3.org/2000/svg">
<path fill-rule="evenodd" clip-rule="evenodd" d="M62.5 124C28.2584 124 0 151.758 0 186V1001C0 1035.24 27.7583 1063 62 1063H594H718.811C734.066 1063 748.785 1057.38 760.154 1047.2L1167.34 682.859C1180.49 671.097 1188 654.294 1188 636.655V531.5V62C1188 27.7583 1160.24 0 1126 0H908.402C882.851 0 860.671 17.6131 854.884 42.5C849.096 67.3869 826.917 85 801.366 85L584.634 85C559.083 85 536.904 67.3869 531.116 42.5C525.329 17.6131 503.149 0 477.598 0H187C152.758 0 125 27.7584 125 62C125 96.2417 96.7417 124 62.5 124Z" fill="#D74925"/>
</svg>
