<svg width="455" height="544" viewBox="0 0 455 544" fill="none" xmlns="http://www.w3.org/2000/svg">
<mask id="path-1-inside-1_21_6" fill="white">
<path fill-rule="evenodd" clip-rule="evenodd" d="M203.104 23.5C205.956 37.1894 218.021 47 232.005 47L304.995 47C318.979 47 331.044 37.1894 333.896 23.5C336.748 9.81058 348.813 0 362.796 0H393C427.242 0 455 27.7584 455 62V226.352C455 244.208 442.478 259.617 425 263.269C407.522 266.922 395 282.331 395 300.187V343.813C395 361.669 407.522 377.078 425 380.731C442.478 384.383 455 399.792 455 417.648V482C455 516.242 427.242 544 393 544H62C27.7584 544 0 516.242 0 482V62C0 27.7583 27.7583 0 62 0H174.204C188.187 0 200.252 9.81058 203.104 23.5Z"/>
</mask>
<path fill-rule="evenodd" clip-rule="evenodd" d="M203.104 23.5C205.956 37.1894 218.021 47 232.005 47L304.995 47C318.979 47 331.044 37.1894 333.896 23.5C336.748 9.81058 348.813 0 362.796 0H393C427.242 0 455 27.7584 455 62V226.352C455 244.208 442.478 259.617 425 263.269C407.522 266.922 395 282.331 395 300.187V343.813C395 361.669 407.522 377.078 425 380.731C442.478 384.383 455 399.792 455 417.648V482C455 516.242 427.242 544 393 544H62C27.7584 544 0 516.242 0 482V62C0 27.7583 27.7583 0 62 0H174.204C188.187 0 200.252 9.81058 203.104 23.5Z" fill="#FFC5B4"/>
<path d="M304.995 45L232.005 45V49L304.995 49V45ZM393 -2H362.796V2H393V-2ZM457 226.352V62H453V226.352H457ZM397 343.813V300.187H393V343.813H397ZM457 482V417.648H453V482H457ZM62 546H393V542H62V546ZM-2 62V482H2V62H-2ZM174.204 -2H62V2H174.204V-2ZM174.204 2C187.24 2 198.487 11.1459 201.146 23.9079L205.062 23.0921C202.017 8.47523 189.134 -2 174.204 -2V2ZM2 62C2 28.8629 28.8629 2 62 2V-2C26.6537 -2 -2 26.6538 -2 62H2ZM62 542C28.8629 542 2 515.137 2 482H-2C-2 517.346 26.6538 546 62 546V542ZM453 482C453 515.137 426.137 542 393 542V546C428.346 546 457 517.346 457 482H453ZM424.591 382.688C441.142 386.147 453 400.739 453 417.648H457C457 398.845 443.814 382.619 425.409 378.773L424.591 382.688ZM393 343.813C393 362.616 406.186 378.842 424.591 382.688L425.409 378.773C408.858 375.314 397 360.722 397 343.813H393ZM424.591 261.312C406.186 265.158 393 281.384 393 300.187H397C397 283.278 408.858 268.686 425.409 265.227L424.591 261.312ZM453 226.352C453 243.261 441.142 257.853 424.591 261.312L425.409 265.227C443.814 261.381 457 245.155 457 226.352H453ZM393 2C426.137 2 453 28.8629 453 62H457C457 26.6538 428.346 -2 393 -2V2ZM335.854 23.9079C338.513 11.1459 349.76 2 362.796 2V-2C347.866 -2 334.983 8.47523 331.938 23.0921L335.854 23.9079ZM232.005 45C218.969 45 207.721 35.8541 205.062 23.0921L201.146 23.9079C204.191 38.5248 217.074 49 232.005 49V45ZM304.995 49C319.926 49 332.809 38.5248 335.854 23.9079L331.938 23.0921C329.279 35.8541 318.031 45 304.995 45V49Z" fill="#FE6C25" mask="url(#path-1-inside-1_21_6)"/>
</svg>
